<svg xmlns="http://www.w3.org/2000/svg" xmlns:xlink="http://www.w3.org/1999/xlink" version="1.1" width="256" height="256" viewBox="0 0 256 256" xml:space="preserve">
<g style="stroke: none; stroke-width: 0; stroke-dasharray: none; stroke-linecap: butt; stroke-linejoin: miter; stroke-miterlimit: 10; fill: none; fill-rule: nonzero; opacity: 1;" transform="translate(1.4065934065934016 1.4065934065934016) scale(2.81 2.81)">
	<path d="M 61.172 7.087 c 0 15.236 -12.865 28.828 -28.828 28.828 c 15.964 0 28.828 13.593 28.828 28.828 c 0 -15.236 12.865 -28.828 28.828 -28.828 C 74.036 35.915 61.172 22.323 61.172 7.087 z" style="stroke: none; stroke-width: 1; stroke-dasharray: none; stroke-linecap: butt; stroke-linejoin: miter; stroke-miterlimit: 10; fill: rgb(255,206,0); fill-rule: nonzero; opacity: 1;" transform=" matrix(1 0 0 1 0 0) " stroke-linecap="round"/>
	<path d="M 16.172 35.132 c 0 8.547 -7.217 16.172 -16.172 16.172 c 8.955 0 16.172 7.625 16.172 16.172 c 0 -8.547 7.217 -16.172 16.172 -16.172 C 23.388 51.303 16.172 43.678 16.172 35.132 z" style="stroke: none; stroke-width: 1; stroke-dasharray: none; stroke-linecap: butt; stroke-linejoin: miter; stroke-miterlimit: 10; fill: rgb(255,206,0); fill-rule: nonzero; opacity: 1;" transform=" matrix(1 0 0 1 0 0) " stroke-linecap="round"/>
	<path d="M 42.352 60.662 c 0 5.88 -4.965 11.125 -11.125 11.125 c 6.161 0 11.125 5.246 11.125 11.125 c 0 -5.88 4.965 -11.125 11.125 -11.125 C 47.317 71.788 42.352 66.542 42.352 60.662 z" style="stroke: none; stroke-width: 1; stroke-dasharray: none; stroke-linecap: butt; stroke-linejoin: miter; stroke-miterlimit: 10; fill: rgb(255,206,0); fill-rule: nonzero; opacity: 1;" transform=" matrix(1 0 0 1 0 0) " stroke-linecap="round"/>
</g>
</svg>