<svg
    xmlns="http://www.w3.org/2000/svg"
    viewBox="0 0 48 48"
    width="24px"
    height="24px"
>
    <path
        fill="#FFC107"
        d="M43.6 20.5H42V20H24v8h11.3c-1.6 4.6-6 8-11.3 8-6.6 0-12-5.4-12-12s5.4-12 12-12c3.1 0 5.9 1.2 8 3.1l5.7-5.7C33.8 6.1 29.1 4 24 4 12.9 4 4 12.9 4 24s8.9 20 20 20 20-8.9 20-20c0-1.3-.1-2.7-.4-3.5z"
    />
    <path
        fill="#FF3D00"
        d="M6.3 14.7l6.6 4.8C14.4 16 17.9 14 22 14c3.1 0 5.9 1.2 8 3.1l5.7-5.7C33.8 6.1 29.1 4 24 4c-7.4 0-13.7 4.1-17 10.7z"
    />
    <path
        fill="#4CAF50"
        d="M24 44c5.2 0 9.9-2 13.4-5.2l-6.2-5.3C29.1 35.2 26.7 36 24 36c-5.2 0-9.6-3.3-11.2-7.9l-6.6 5.1C10.3 39.6 16.6 44 24 44z"
    />
    <path
        fill="#1976D2"
        d="M43.6 20.5H42V20H24v8h11.3c-.8 2.3-2.3 4.3-4.3 5.7l6.2 5.3C39.5 36.6 42 30.7 42 24c0-1.3-.1-2.7-.4-3.5z"
    />
</svg>